<?xml version="1.0" encoding="UTF-8" standalone="no"?>
<!DOCTYPE svg PUBLIC "-//W3C//DTD SVG 1.1//EN"
 "http://www.w3.org/Graphics/SVG/1.1/DTD/svg11.dtd">
<!-- Generated by graphviz version 12.2.1 (20241206.2353)
 -->
<!-- Title: Secure Research Workspace on AKS &#160;&#45; &#160;Architecture &amp; App&#45;Launch Flow Pages: 1 -->
<svg width="1989pt" height="1704pt"
 viewBox="0.00 0.00 1989.05 1704.40" xmlns="http://www.w3.org/2000/svg" xmlns:xlink="http://www.w3.org/1999/xlink">
<g id="graph0" class="graph" transform="scale(1 1) rotate(0) translate(43.2 1661.2)">
<title>Secure Research Workspace on AKS &#160;&#45; &#160;Architecture &amp; App&#45;Launch Flow</title>
<polygon fill="white" stroke="none" points="-43.2,43.2 -43.2,-1661.2 1945.85,-1661.2 1945.85,43.2 -43.2,43.2"/>
<text text-anchor="middle" x="951.33" y="-11.2" font-family="Sans-Serif" font-size="24.00" fill="#2d3436">Secure Research Workspace on AKS &#160;&#45; &#160;Architecture &amp; App&#45;Launch Flow</text>
<g id="clust1" class="cluster">
<title>cluster_Azure Subscription &#160;&#160;| &#160;&#160;RG: srw&#45;platform&#45;rg</title>
<path fill="#e5f5fd" stroke="#aeb6be" d="M418.53,-46C418.53,-46 1882.65,-46 1882.65,-46 1888.65,-46 1894.65,-52 1894.65,-58 1894.65,-58 1894.65,-1598 1894.65,-1598 1894.65,-1604 1888.65,-1610 1882.65,-1610 1882.65,-1610 418.53,-1610 418.53,-1610 412.53,-1610 406.53,-1604 406.53,-1598 406.53,-1598 406.53,-58 406.53,-58 406.53,-52 412.53,-46 418.53,-46"/>
<text text-anchor="middle" x="531.15" y="-1594.6" font-family="Sans-Serif" font-size="12.00" fill="#2d3436">Azure Subscription &#160;&#160;| &#160;&#160;RG: srw&#45;platform&#45;rg</text>
</g>
<g id="clust2" class="cluster">
<title>cluster_AKS Cluster (srw&#45;aks) &#160;&#45; &#160;1 shared, managed control plane</title>
<path fill="#ebf3e7" stroke="#aeb6be" d="M426.53,-54C426.53,-54 1514.35,-54 1514.35,-54 1520.35,-54 1526.35,-60 1526.35,-66 1526.35,-66 1526.35,-1246 1526.35,-1246 1526.35,-1252 1520.35,-1258 1514.35,-1258 1514.35,-1258 426.53,-1258 426.53,-1258 420.53,-1258 414.53,-1252 414.53,-1246 414.53,-1246 414.53,-66 414.53,-66 414.53,-60 420.53,-54 426.53,-54"/>
<text text-anchor="middle" x="576.65" y="-1242.6" font-family="Sans-Serif" font-size="12.00" fill="#2d3436">AKS Cluster (srw&#45;aks) &#160;&#45; &#160;1 shared, managed control plane</text>
</g>
<g id="clust3" class="cluster">
<title>cluster_namespace: srw&#45;platform</title>
<path fill="#ece8f6" stroke="#aeb6be" d="M802.45,-173C802.45,-173 927.95,-173 927.95,-173 933.95,-173 939.95,-179 939.95,-185 939.95,-185 939.95,-921 939.95,-921 939.95,-927 933.95,-933 927.95,-933 927.95,-933 802.45,-933 802.45,-933 796.45,-933 790.45,-927 790.45,-921 790.45,-921 790.45,-185 790.45,-185 790.45,-179 796.45,-173 802.45,-173"/>
<text text-anchor="middle" x="865.2" y="-917.6" font-family="Sans-Serif" font-size="12.00" fill="#2d3436">namespace: srw&#45;platform</text>
</g>
<g id="clust4" class="cluster">
<title>cluster_namespace: ws&#45;&lt;name&gt;&#45;&lt;id&gt; &#160;(one per workspace)</title>
<path fill="#ece8f6" stroke="#aeb6be" d="M1234.6,-62C1234.6,-62 1506.35,-62 1506.35,-62 1512.35,-62 1518.35,-68 1518.35,-74 1518.35,-74 1518.35,-1214 1518.35,-1214 1518.35,-1220 1512.35,-1226 1506.35,-1226 1506.35,-1226 1234.6,-1226 1234.6,-1226 1228.6,-1226 1222.6,-1220 1222.6,-1214 1222.6,-1214 1222.6,-74 1222.6,-74 1222.6,-68 1228.6,-62 1234.6,-62"/>
<text text-anchor="middle" x="1370.48" y="-1210.6" font-family="Sans-Serif" font-size="12.00" fill="#2d3436">namespace: ws&#45;&lt;name&gt;&#45;&lt;id&gt; &#160;(one per workspace)</text>
</g>
<!-- 7ad69ef79f574024898eb99a024e8bda -->
<g id="node1" class="node">
<title>7ad69ef79f574024898eb99a024e8bda</title>
<image xlink:href="C:\Users\Thulasiraman.subrama\AppData\Roaming\Python\Python314\site-packages\resources/onprem/client\users.png" width="100.8px" height="100.8px" preserveAspectRatio="xMinYMin meet" x="9.9476e-14" y="-609.4"/>
<text text-anchor="middle" x="50.4" y="-496.85" font-family="Sans-Serif" font-size="13.00" fill="#2d3436">Researcher</text>
<text text-anchor="middle" x="50.4" y="-480.35" font-family="Sans-Serif" font-size="13.00" fill="#2d3436">(X&#45;User&#45;Id = email)</text>
</g>
<!-- 532924c7889145afabb07e4dfb470294 -->
<g id="node2" class="node">
<title>532924c7889145afabb07e4dfb470294</title>
<image xlink:href="C:\Users\Thulasiraman.subrama\AppData\Roaming\Python\Python314\site-packages\resources/k8s/network\ing.png" width="100.8px" height="100.8px" preserveAspectRatio="xMinYMin meet" x="422.525" y="-609.4"/>
<text text-anchor="middle" x="472.93" y="-496.85" font-family="Sans-Serif" font-size="13.00" fill="#2d3436">ingress&#45;nginx</text>
<text text-anchor="middle" x="472.93" y="-480.35" font-family="Sans-Serif" font-size="13.00" fill="#2d3436">(/s/&lt;slug&gt;/ , /api)</text>
</g>
<!-- 7ad69ef79f574024898eb99a024e8bda&#45;&gt;532924c7889145afabb07e4dfb470294 -->
<g id="edge1" class="edge">
<title>7ad69ef79f574024898eb99a024e8bda&#45;&gt;532924c7889145afabb07e4dfb470294</title>
<path fill="none" stroke="#7b8894" d="M100.53,-586.6C100.53,-586.6 411.02,-586.6 411.02,-586.6"/>
<polygon fill="#7b8894" stroke="#7b8894" points="411.02,-590.1 421.02,-586.6 411.02,-583.1 411.02,-590.1"/>
<text text-anchor="middle" x="260.05" y="-563.15" font-family="Sans-Serif" font-size="13.00" fill="#2d3436">1 &#160;POST /workspaces/{id}/sessions</text>
</g>
<!-- 7ad69ef79f574024898eb99a024e8bda&#45;&gt;532924c7889145afabb07e4dfb470294 -->
<g id="edge12" class="edge">
<title>7ad69ef79f574024898eb99a024e8bda&#45;&gt;532924c7889145afabb07e4dfb470294</title>
<path fill="none" stroke="darkgreen" stroke-width="2.2" d="M100.53,-531.4C100.53,-531.4 409.2,-531.4 409.2,-531.4"/>
<polygon fill="darkgreen" stroke="darkgreen" stroke-width="2.2" points="409.2,-534.9 419.2,-531.4 409.2,-527.9 409.2,-534.9"/>
<text text-anchor="middle" x="260.05" y="-476.15" font-family="Sans-Serif" font-size="13.00" fill="#2d3436">8 &#160;open app URL</text>
</g>
<!-- 746d08f99f1c4d3c946c61d8c31f680b -->
<g id="node4" class="node">
<title>746d08f99f1c4d3c946c61d8c31f680b</title>
<image xlink:href="C:\Users\Thulasiraman.subrama\AppData\Roaming\Python\Python314\site-packages\resources/k8s/compute\deploy.png" width="100.8px" height="100.8px" preserveAspectRatio="xMinYMin meet" x="814.3" y="-609.4"/>
<text text-anchor="middle" x="864.7" y="-496.85" font-family="Sans-Serif" font-size="13.00" fill="#2d3436">SRW.Api</text>
<text text-anchor="middle" x="864.7" y="-480.35" font-family="Sans-Serif" font-size="13.00" fill="#2d3436">(2 replicas)</text>
</g>
<!-- 532924c7889145afabb07e4dfb470294&#45;&gt;746d08f99f1c4d3c946c61d8c31f680b -->
<g id="edge2" class="edge">
<title>532924c7889145afabb07e4dfb470294&#45;&gt;746d08f99f1c4d3c946c61d8c31f680b</title>
<path fill="none" stroke="#7b8894" d="M522.94,-559C522.94,-559 802.85,-559 802.85,-559"/>
<polygon fill="#7b8894" stroke="#7b8894" points="802.85,-562.5 812.85,-559 802.85,-555.5 802.85,-562.5"/>
<text text-anchor="middle" x="670.43" y="-563.15" font-family="Sans-Serif" font-size="13.00" fill="#2d3436">2</text>
</g>
<!-- df7312e26b69408daa4f5bc1bf9caf39 -->
<g id="node7" class="node">
<title>df7312e26b69408daa4f5bc1bf9caf39</title>
<image xlink:href="C:\Users\Thulasiraman.subrama\AppData\Roaming\Python\Python314\site-packages\resources/k8s/network\svc.png" width="100.8px" height="100.8px" preserveAspectRatio="xMinYMin meet" x="1319.58" y="-527.4"/>
<text text-anchor="middle" x="1369.98" y="-414.85" font-family="Sans-Serif" font-size="13.00" fill="#2d3436">svc&#45;&lt;id&gt;</text>
<text text-anchor="middle" x="1369.98" y="-398.35" font-family="Sans-Serif" font-size="13.00" fill="#2d3436">(ClusterIP)</text>
</g>
<!-- 532924c7889145afabb07e4dfb470294&#45;&gt;df7312e26b69408daa4f5bc1bf9caf39 -->
<g id="edge13" class="edge">
<title>532924c7889145afabb07e4dfb470294&#45;&gt;df7312e26b69408daa4f5bc1bf9caf39</title>
<path fill="none" stroke="darkgreen" stroke-width="2.2" d="M472.65,-476.42C472.65,-453.71 472.65,-435.2 472.65,-435.2 472.65,-435.2 1306.48,-435.2 1306.48,-435.2"/>
<polygon fill="darkgreen" stroke="darkgreen" stroke-width="2.2" points="1306.48,-438.7 1316.48,-435.2 1306.48,-431.7 1306.48,-438.7"/>
</g>
<!-- f472bbde26af4293b3356ab79df809de -->
<g id="node3" class="node">
<title>f472bbde26af4293b3356ab79df809de</title>
<image xlink:href="C:\Users\Thulasiraman.subrama\AppData\Roaming\Python\Python314\site-packages\resources/k8s/rbac\sa.png" width="100.8px" height="100.8px" preserveAspectRatio="xMinYMin meet" x="814.3" y="-314.4"/>
<text text-anchor="middle" x="864.7" y="-201.85" font-family="Sans-Serif" font-size="13.00" fill="#2d3436">srw&#45;api SA</text>
<text text-anchor="middle" x="864.7" y="-185.35" font-family="Sans-Serif" font-size="13.00" fill="#2d3436">+ ClusterRole RBAC</text>
</g>
<!-- f472bbde26af4293b3356ab79df809de&#45;&gt;746d08f99f1c4d3c946c61d8c31f680b -->
<g id="edge6" class="edge">
<title>f472bbde26af4293b3356ab79df809de&#45;&gt;746d08f99f1c4d3c946c61d8c31f680b</title>
<path fill="none" stroke="#737373" stroke-dasharray="5,2" d="M864.65,-346.57C864.65,-346.57 864.65,-464.94 864.65,-464.94"/>
<polygon fill="#737373" stroke="#737373" points="861.15,-464.94 864.65,-474.94 868.15,-464.94 861.15,-464.94"/>
</g>
<!-- 746d08f99f1c4d3c946c61d8c31f680b&#45;&gt;7ad69ef79f574024898eb99a024e8bda -->
<g id="edge8" class="edge">
<title>746d08f99f1c4d3c946c61d8c31f680b&#45;&gt;7ad69ef79f574024898eb99a024e8bda</title>
<path fill="none" stroke="#737373" stroke-dasharray="5,2" d="M847.65,-641.57C847.65,-660.05 847.65,-674.3 847.65,-674.3 847.65,-674.3 50.65,-674.3 50.65,-674.3 50.65,-674.3 50.65,-653.08 50.65,-653.08"/>
<polygon fill="#737373" stroke="#737373" points="54.15,-653.08 50.65,-643.08 47.15,-653.08 54.15,-653.08"/>
<text text-anchor="middle" x="472.93" y="-386.15" font-family="Sans-Serif" font-size="13.00" fill="#2d3436">7 &#160;return AccessUrl</text>
</g>
<!-- 917dfa82a6ab4cb88b660a8a0f31a066 -->
<g id="node6" class="node">
<title>917dfa82a6ab4cb88b660a8a0f31a066</title>
<image xlink:href="C:\Users\Thulasiraman.subrama\AppData\Roaming\Python\Python314\site-packages\resources/k8s/compute\deploy.png" width="100.8px" height="100.8px" preserveAspectRatio="xMinYMin meet" x="1319.58" y="-217.4"/>
<text text-anchor="middle" x="1369.98" y="-106.95" font-family="Sans-Serif" font-size="13.00" fill="#2d3436">Deployment sess&#45;&lt;id&gt;</text>
<text text-anchor="middle" x="1369.98" y="-90.45" font-family="Sans-Serif" font-size="13.00" fill="#2d3436">Jupyter / RStudio / DBGate / FDSA</text>
<text text-anchor="middle" x="1369.98" y="-73.95" font-family="Sans-Serif" font-size="13.00" fill="#2d3436">req 0.5&#45;2 vCPU / 1&#45;4 GiB</text>
</g>
<!-- 746d08f99f1c4d3c946c61d8c31f680b&#45;&gt;917dfa82a6ab4cb88b660a8a0f31a066 -->
<g id="edge4" class="edge">
<title>746d08f99f1c4d3c946c61d8c31f680b&#45;&gt;917dfa82a6ab4cb88b660a8a0f31a066</title>
<path fill="none" stroke="#7b8894" d="M914.75,-518C969.52,-518 1049.65,-518 1049.65,-518 1049.65,-518 1049.65,-214.4 1049.65,-214.4 1049.65,-214.4 1308.41,-214.4 1308.41,-214.4"/>
<polygon fill="#7b8894" stroke="#7b8894" points="1308.41,-217.9 1318.41,-214.4 1308.41,-210.9 1308.41,-217.9"/>
<text text-anchor="middle" x="1093.85" y="-210.15" font-family="Sans-Serif" font-size="13.00" fill="#2d3436">4 &#160;create Deployment + Service + Ingress</text>
</g>
<!-- ab65e963c2df4289a4c628972911541e -->
<g id="node11" class="node">
<title>ab65e963c2df4289a4c628972911541e</title>
<image xlink:href="C:\Users\Thulasiraman.subrama\AppData\Roaming\Python\Python314\site-packages\resources/azure/database\cosmos-db.png" width="100.8px" height="100.8px" preserveAspectRatio="xMinYMin meet" x="1319.58" y="-1399.4"/>
<text text-anchor="middle" x="1369.98" y="-1286.85" font-family="Sans-Serif" font-size="13.00" fill="#2d3436">Cosmos DB (srw)</text>
<text text-anchor="middle" x="1369.98" y="-1270.35" font-family="Sans-Serif" font-size="13.00" fill="#2d3436">workspaces | sessions | secrets</text>
</g>
<!-- 746d08f99f1c4d3c946c61d8c31f680b&#45;&gt;ab65e963c2df4289a4c628972911541e -->
<g id="edge3" class="edge">
<title>746d08f99f1c4d3c946c61d8c31f680b&#45;&gt;ab65e963c2df4289a4c628972911541e</title>
<path fill="none" stroke="#7b8894" d="M915.06,-633.5C947.12,-633.5 982.65,-633.5 982.65,-633.5 982.65,-633.5 982.65,-1302.7 982.65,-1302.7 982.65,-1302.7 1308.22,-1302.7 1308.22,-1302.7"/>
<polygon fill="#7b8894" stroke="#7b8894" points="1308.22,-1306.2 1318.22,-1302.7 1308.22,-1299.2 1308.22,-1306.2"/>
<text text-anchor="middle" x="1093.85" y="-618.15" font-family="Sans-Serif" font-size="13.00" fill="#2d3436">3 &#160;idempotency + session doc</text>
</g>
<!-- 4a087fbe859f412f8467b3ac59f5886d -->
<g id="node12" class="node">
<title>4a087fbe859f412f8467b3ac59f5886d</title>
<image xlink:href="C:\Users\Thulasiraman.subrama\AppData\Roaming\Python\Python314\site-packages\resources/azure/integration\service-bus.png" width="100.8px" height="100.8px" preserveAspectRatio="xMinYMin meet" x="422.525" y="-1472.4"/>
<text text-anchor="middle" x="472.93" y="-1359.85" font-family="Sans-Serif" font-size="13.00" fill="#2d3436">Service Bus</text>
<text text-anchor="middle" x="472.93" y="-1343.35" font-family="Sans-Serif" font-size="13.00" fill="#2d3436">provision | stop | cleanup</text>
</g>
<!-- 746d08f99f1c4d3c946c61d8c31f680b&#45;&gt;4a087fbe859f412f8467b3ac59f5886d -->
<g id="edge15" class="edge">
<title>746d08f99f1c4d3c946c61d8c31f680b&#45;&gt;4a087fbe859f412f8467b3ac59f5886d</title>
<path fill="none" stroke="#7d3c98" stroke-dasharray="1,5" d="M881.65,-641.57C881.65,-668 881.65,-690.55 881.65,-690.55 881.65,-690.55 455.65,-690.55 455.65,-690.55 455.65,-690.55 455.65,-1328 455.65,-1328"/>
<polygon fill="#7d3c98" stroke="#7d3c98" points="452.15,-1328 455.65,-1338 459.15,-1328 452.15,-1328"/>
<text text-anchor="middle" x="670.43" y="-713.15" font-family="Sans-Serif" font-size="13.00" fill="#2d3436">create workspace &#45;&gt; enqueue</text>
</g>
<!-- 0f9ff1f879c04ca68dca71dc71e4103d -->
<g id="node5" class="node">
<title>0f9ff1f879c04ca68dca71dc71e4103d</title>
<image xlink:href="C:\Users\Thulasiraman.subrama\AppData\Roaming\Python\Python314\site-packages\resources/k8s/compute\pod.png" width="100.8px" height="100.8px" preserveAspectRatio="xMinYMin meet" x="814.3" y="-854.4"/>
<text text-anchor="middle" x="864.7" y="-743.95" font-family="Sans-Serif" font-size="13.00" fill="#2d3436">Background workers</text>
<text text-anchor="middle" x="864.7" y="-727.45" font-family="Sans-Serif" font-size="13.00" fill="#2d3436">Provision / Stop / Poller</text>
<text text-anchor="middle" x="864.7" y="-710.95" font-family="Sans-Serif" font-size="13.00" fill="#2d3436">IdleReaper / OrphanCleaner</text>
</g>
<!-- 0f9ff1f879c04ca68dca71dc71e4103d&#45;&gt;917dfa82a6ab4cb88b660a8a0f31a066 -->
<g id="edge7" class="edge">
<title>0f9ff1f879c04ca68dca71dc71e4103d&#45;&gt;917dfa82a6ab4cb88b660a8a0f31a066</title>
<path fill="none" stroke="#737373" stroke-dasharray="5,2" d="M914.98,-748.8C988.75,-748.8 1117.65,-748.8 1117.65,-748.8 1117.65,-748.8 1117.65,-231 1117.65,-231 1117.65,-231 1308.31,-231 1308.31,-231"/>
<polygon fill="#737373" stroke="#737373" points="1308.31,-234.5 1318.31,-231 1308.31,-227.5 1308.31,-234.5"/>
<text text-anchor="middle" x="1093.85" y="-322.15" font-family="Sans-Serif" font-size="13.00" fill="#2d3436">6 &#160;poll ready &#45;&gt; Running</text>
</g>
<!-- 6e02ed0673da4577b7cb6d925add6dd5 -->
<g id="node13" class="node">
<title>6e02ed0673da4577b7cb6d925add6dd5</title>
<image xlink:href="C:\Users\Thulasiraman.subrama\AppData\Roaming\Python\Python314\site-packages\resources/azure/storage\azure-fileshares.png" width="100.8px" height="100.8px" preserveAspectRatio="xMinYMin meet" x="1785.85" y="-217.4"/>
<text text-anchor="middle" x="1836.25" y="-106.95" font-family="Sans-Serif" font-size="13.00" fill="#2d3436">Storage Account srw&lt;guid&gt;</text>
<text text-anchor="middle" x="1836.25" y="-90.45" font-family="Sans-Serif" font-size="13.00" fill="#2d3436">File Share: workspace&#45;share (SMB)</text>
<text text-anchor="middle" x="1836.25" y="-73.95" font-family="Sans-Serif" font-size="13.00" fill="#2d3436">1 per workspace</text>
</g>
<!-- 0f9ff1f879c04ca68dca71dc71e4103d&#45;&gt;6e02ed0673da4577b7cb6d925add6dd5 -->
<g id="edge17" class="edge">
<title>0f9ff1f879c04ca68dca71dc71e4103d&#45;&gt;6e02ed0673da4577b7cb6d925add6dd5</title>
<path fill="none" stroke="#7d3c98" stroke-dasharray="1,5" d="M914.91,-823.2C1113.94,-823.2 1836.65,-823.2 1836.65,-823.2 1836.65,-823.2 1836.65,-275.69 1836.65,-275.69"/>
<polygon fill="#7d3c98" stroke="#7d3c98" points="1840.15,-275.69 1836.65,-265.69 1833.15,-275.69 1840.15,-275.69"/>
<text text-anchor="middle" x="1369.98" y="-1566.15" font-family="Sans-Serif" font-size="13.00" fill="#2d3436">provision ns + secret + netpol</text>
</g>
<!-- 55055d2a1312441785af817b148654d5 -->
<g id="node9" class="node">
<title>55055d2a1312441785af817b148654d5</title>
<image xlink:href="C:\Users\Thulasiraman.subrama\AppData\Roaming\Python\Python314\site-packages\resources/k8s/podconfig\secret.png" width="100.8px" height="100.8px" preserveAspectRatio="xMinYMin meet" x="1319.58" y="-974.4"/>
<text text-anchor="middle" x="1369.98" y="-859.75" font-family="Sans-Serif" font-size="13.00" fill="#2d3436">azure&#45;storage&#45;creds</text>
</g>
<!-- 917dfa82a6ab4cb88b660a8a0f31a066&#45;&gt;55055d2a1312441785af817b148654d5 -->
<g id="edge9" class="edge">
<title>917dfa82a6ab4cb88b660a8a0f31a066&#45;&gt;55055d2a1312441785af817b148654d5</title>
<path fill="none" stroke="#737373" stroke-dasharray="5,2" d="M1319.88,-197.8C1287.99,-197.8 1252.65,-197.8 1252.65,-197.8 1252.65,-197.8 1252.65,-878.4 1252.65,-878.4 1252.65,-878.4 1308.36,-878.4 1308.36,-878.4"/>
<polygon fill="#737373" stroke="#737373" points="1308.36,-881.9 1318.36,-878.4 1308.36,-874.9 1308.36,-881.9"/>
<text text-anchor="middle" x="1093.85" y="-481.9" font-family="Sans-Serif" font-size="13.00" fill="#2d3436">reads</text>
</g>
<!-- 917dfa82a6ab4cb88b660a8a0f31a066&#45;&gt;6e02ed0673da4577b7cb6d925add6dd5 -->
<g id="edge5" class="edge">
<title>917dfa82a6ab4cb88b660a8a0f31a066&#45;&gt;6e02ed0673da4577b7cb6d925add6dd5</title>
<path fill="none" stroke="#7b8894" d="M1420.32,-167C1420.32,-167 1774.6,-167 1774.6,-167"/>
<polygon fill="#7b8894" stroke="#7b8894" points="1774.6,-170.5 1784.6,-167 1774.6,-163.5 1774.6,-170.5"/>
<text text-anchor="middle" x="1631.1" y="-171.15" font-family="Sans-Serif" font-size="13.00" fill="#2d3436">5 &#160;SMB mount (file.csi.azure.com)</text>
</g>
<!-- df7312e26b69408daa4f5bc1bf9caf39&#45;&gt;917dfa82a6ab4cb88b660a8a0f31a066 -->
<g id="edge14" class="edge">
<title>df7312e26b69408daa4f5bc1bf9caf39&#45;&gt;917dfa82a6ab4cb88b660a8a0f31a066</title>
<path fill="none" stroke="darkgreen" stroke-width="2.2" d="M1369.65,-394.33C1369.65,-394.33 1369.65,-277.34 1369.65,-277.34"/>
<polygon fill="darkgreen" stroke="darkgreen" stroke-width="2.2" points="1373.15,-277.34 1369.65,-267.34 1366.15,-277.34 1373.15,-277.34"/>
</g>
<!-- 0d554d4563a34e55a016629d5fbbdfa3 -->
<g id="node8" class="node">
<title>0d554d4563a34e55a016629d5fbbdfa3</title>
<image xlink:href="C:\Users\Thulasiraman.subrama\AppData\Roaming\Python\Python314\site-packages\resources/k8s/network\ing.png" width="100.8px" height="100.8px" preserveAspectRatio="xMinYMin meet" x="1319.58" y="-758.4"/>
<text text-anchor="middle" x="1369.98" y="-645.85" font-family="Sans-Serif" font-size="13.00" fill="#2d3436">Ingress rule</text>
<text text-anchor="middle" x="1369.98" y="-629.35" font-family="Sans-Serif" font-size="13.00" fill="#2d3436">/s/&lt;slug&gt;/</text>
</g>
<!-- 0d554d4563a34e55a016629d5fbbdfa3&#45;&gt;532924c7889145afabb07e4dfb470294 -->
<g id="edge11" class="edge">
<title>0d554d4563a34e55a016629d5fbbdfa3&#45;&gt;532924c7889145afabb07e4dfb470294</title>
<path fill="none" stroke="#737373" stroke-dasharray="5,2" d="M1319.8,-658.05C1133.16,-658.05 489.65,-658.05 489.65,-658.05 489.65,-658.05 489.65,-653.21 489.65,-653.21"/>
<polygon fill="#737373" stroke="#737373" points="493.15,-653.21 489.65,-643.21 486.15,-653.21 493.15,-653.21"/>
<text text-anchor="middle" x="864.7" y="-1186.15" font-family="Sans-Serif" font-size="13.00" fill="#2d3436">registers route</text>
</g>
<!-- 2e6d9415b91643f994fac0cc0bb559fb -->
<g id="node10" class="node">
<title>2e6d9415b91643f994fac0cc0bb559fb</title>
<image xlink:href="C:\Users\Thulasiraman.subrama\AppData\Roaming\Python\Python314\site-packages\resources/k8s/network\netpol.png" width="100.8px" height="100.8px" preserveAspectRatio="xMinYMin meet" x="1319.58" y="-1176.4"/>
<text text-anchor="middle" x="1369.98" y="-1061.75" font-family="Sans-Serif" font-size="13.00" fill="#2d3436">default&#45;deny</text>
</g>
<!-- 2e6d9415b91643f994fac0cc0bb559fb&#45;&gt;917dfa82a6ab4cb88b660a8a0f31a066 -->
<g id="edge10" class="edge">
<title>2e6d9415b91643f994fac0cc0bb559fb&#45;&gt;917dfa82a6ab4cb88b660a8a0f31a066</title>
<path fill="none" stroke="#737373" stroke-dasharray="5,2" d="M1319.82,-1126C1264.94,-1126 1184.65,-1126 1184.65,-1126 1184.65,-1126 1184.65,-247.6 1184.65,-247.6 1184.65,-247.6 1308.31,-247.6 1308.31,-247.6"/>
<polygon fill="#737373" stroke="#737373" points="1308.31,-251.1 1318.31,-247.6 1308.31,-244.1 1308.31,-251.1"/>
<text text-anchor="middle" x="1093.85" y="-402.9" font-family="Sans-Serif" font-size="13.00" fill="#2d3436">isolates</text>
</g>
<!-- 4a087fbe859f412f8467b3ac59f5886d&#45;&gt;0f9ff1f879c04ca68dca71dc71e4103d -->
<g id="edge16" class="edge">
<title>4a087fbe859f412f8467b3ac59f5886d&#45;&gt;0f9ff1f879c04ca68dca71dc71e4103d</title>
<path fill="none" stroke="#7d3c98" stroke-dasharray="1,5" d="M522.94,-1385.5C628.54,-1385.5 864.65,-1385.5 864.65,-1385.5 864.65,-1385.5 864.65,-912.52 864.65,-912.52"/>
<polygon fill="#7d3c98" stroke="#7d3c98" points="868.15,-912.52 864.65,-902.52 861.15,-912.52 868.15,-912.52"/>
<text text-anchor="middle" x="670.43" y="-804.15" font-family="Sans-Serif" font-size="13.00" fill="#2d3436">consumed by</text>
</g>
</g>
</svg>
